<svg id="visual" viewBox="0 0 1920 1080" width="1920" height="1080" xmlns="http://www.w3.org/2000/svg" xmlns:xlink="http://www.w3.org/1999/xlink" version="1.1"><rect x="0" y="0" width="1920" height="1080" fill="#002233"></rect><path d="M0 697L45.7 724.5C91.3 752 182.7 807 274.2 813C365.7 819 457.3 776 548.8 760.7C640.3 745.3 731.7 757.7 823 783.7C914.3 809.7 1005.7 849.3 1097 839C1188.3 828.7 1279.7 768.3 1371.2 735.5C1462.7 702.7 1554.3 697.3 1645.8 723.3C1737.3 749.3 1828.7 806.7 1874.3 835.3L1920 864L1920 1081L1874.3 1081C1828.7 1081 1737.3 1081 1645.8 1081C1554.3 1081 1462.7 1081 1371.2 1081C1279.7 1081 1188.3 1081 1097 1081C1005.7 1081 914.3 1081 823 1081C731.7 1081 640.3 1081 548.8 1081C457.3 1081 365.7 1081 274.2 1081C182.7 1081 91.3 1081 45.7 1081L0 1081Z" fill="#0066FF" stroke-linecap="round" stroke-linejoin="miter"></path></svg>